<svg width="24" height="24" viewBox="0 0 24 24" fill="none"
  xmlns="http://www.w3.org/2000/svg">
  <path fill-rule="evenodd" clip-rule="evenodd" d="M10.53 5.46983C10.6704 5.61045 10.7493 5.80108 10.7493 5.99983C10.7493 6.19858 10.6704 6.3892 10.53 6.52983L5.80995 11.2498H20C20.1989 11.2498 20.3896 11.3288 20.5303 11.4695C20.6709 11.6102 20.75 11.8009 20.75 11.9998C20.75 12.1987 20.6709 12.3895 20.5303 12.5302C20.3896 12.6708 20.1989 12.7498 20 12.7498H5.80995L10.53 17.4698C10.6036 17.5385 10.6627 17.6213 10.7037 17.7133C10.7447 17.8053 10.7668 17.9046 10.7685 18.0053C10.7703 18.106 10.7518 18.206 10.7141 18.2994C10.6764 18.3928 10.6202 18.4776 10.549 18.5489C10.4778 18.6201 10.3929 18.6762 10.2995 18.714C10.2062 18.7517 10.1061 18.7702 10.0054 18.7684C9.90473 18.7666 9.80541 18.7446 9.71341 18.7036C9.62141 18.6626 9.53861 18.6035 9.46995 18.5298L3.46995 12.5298C3.3295 12.3892 3.25061 12.1986 3.25061 11.9998C3.25061 11.8011 3.3295 11.6105 3.46995 11.4698L9.46995 5.46983C9.61058 5.32938 9.8012 5.25049 9.99995 5.25049C10.1987 5.25049 10.3893 5.32938 10.53 5.46983Z" fill="currentColor"/>
</svg>
