<svg width="24" height="24" viewBox="0 0 24 24" fill="none" xmlns="http://www.w3.org/2000/svg">
<path d="M2.69005 6.70493C2.61181 6.52193 2.46408 6.3775 2.27936 6.30343C2.09463 6.22935 1.88805 6.23169 1.70505 6.30993C1.52205 6.38817 1.37763 6.5359 1.30355 6.72062C1.22947 6.90534 1.23181 7.11193 1.31005 7.29493L2.69005 6.70493ZM9.04105 13.7379C9.09702 13.6554 9.13598 13.5626 9.15565 13.4648C9.17532 13.3671 9.17531 13.2664 9.15561 13.1687C9.13591 13.0709 9.09692 12.9781 9.04092 12.8956C8.98492 12.8131 8.91303 12.7426 8.82947 12.6883C8.7459 12.6339 8.65233 12.5967 8.55423 12.5789C8.45613 12.5611 8.35547 12.5631 8.25813 12.5846C8.16079 12.6062 8.06873 12.647 7.98732 12.7045C7.90592 12.7621 7.83682 12.8353 7.78405 12.9199L9.04105 13.7379ZM6.37105 15.0909C6.31734 15.1735 6.28042 15.2659 6.26241 15.3628C6.2444 15.4596 6.24564 15.5591 6.26607 15.6555C6.30733 15.8502 6.42423 16.0205 6.59105 16.1289C6.75787 16.2374 6.96095 16.2752 7.15561 16.2339C7.252 16.2135 7.34342 16.1743 7.42465 16.1185C7.50589 16.0627 7.57534 15.9915 7.62905 15.9089L6.37105 15.0909ZM22.6901 7.29493C22.7599 7.11376 22.7567 6.91258 22.6813 6.73368C22.6058 6.55479 22.4639 6.41213 22.2854 6.33571C22.107 6.25929 21.9058 6.25506 21.7242 6.32392C21.5427 6.39278 21.395 6.52936 21.312 6.70493L22.6901 7.29493ZM19.97 13.1599C20.0387 13.2336 20.1215 13.2927 20.2135 13.3337C20.3055 13.3747 20.4048 13.3967 20.5055 13.3985C20.6062 13.4003 20.7063 13.3818 20.7996 13.3441C20.893 13.3063 20.9779 13.2502 21.0491 13.179C21.1203 13.1077 21.1765 13.0229 21.2142 12.9295C21.2519 12.8361 21.2704 12.7361 21.2686 12.6354C21.2669 12.5347 21.2448 12.4354 21.2038 12.3434C21.1628 12.2514 21.1037 12.1686 21.0301 12.0999L19.97 13.1599ZM11.2501 16.4999C11.2501 16.6988 11.3291 16.8896 11.4697 17.0303C11.6104 17.1709 11.8011 17.2499 12.0001 17.2499C12.199 17.2499 12.3897 17.1709 12.5304 17.0303C12.671 16.8896 12.7501 16.6988 12.7501 16.4999H11.2501ZM16.3711 15.9089C16.4795 16.0758 16.6498 16.1926 16.8445 16.2339C17.0391 16.2752 17.2422 16.2374 17.409 16.1289C17.5759 16.0205 17.6928 15.8502 17.734 15.6555C17.7753 15.4608 17.7375 15.2577 17.629 15.0909L16.3711 15.9089ZM5.53105 11.6589C5.6634 11.5166 5.73535 11.3285 5.73174 11.1342C5.72813 10.9399 5.64924 10.7546 5.5117 10.6173C5.37415 10.48 5.18869 10.4015 4.99439 10.3983C4.80008 10.395 4.6121 10.4673 4.47005 10.5999L5.53105 11.6589ZM2.97005 12.0989C2.83757 12.2411 2.76545 12.4292 2.76888 12.6235C2.7723 12.8178 2.85102 13.0031 2.98843 13.1406C3.12584 13.278 3.31123 13.3567 3.50553 13.3601C3.69983 13.3635 3.88788 13.2914 4.03005 13.1589L2.97005 12.0989ZM12.0001 13.2499C8.77605 13.2499 6.46105 11.6449 4.92505 9.98993C4.27977 9.29135 3.70933 8.5272 3.22305 7.70993C3.03968 7.40251 2.8705 7.08685 2.71605 6.76393C2.7086 6.74765 2.70127 6.73131 2.69405 6.71493L2.69005 6.70493L2.68905 6.70393L2.00005 6.99993C1.76956 7.09746 1.53956 7.19513 1.31005 7.29493L1.31105 7.29593L1.31205 7.29893L1.31505 7.30493C1.32801 7.33443 1.34135 7.36376 1.35505 7.39293C1.53145 7.76307 1.72499 8.1248 1.93505 8.47693C2.34505 9.16693 2.96905 10.0869 3.82505 11.0099C5.54005 12.8549 8.22405 14.7499 12.0001 14.7499V13.2499ZM15.3131 12.6309C14.3431 13.0139 13.2421 13.2499 12.0001 13.2499V14.7499C13.4381 14.7499 14.7251 14.4739 15.8621 14.0269L15.3131 12.6309ZM7.78405 12.9199L6.37105 15.0909L7.62905 15.9079L9.04105 13.7379L7.78405 12.9199ZM22 6.99993L21.31 6.70393H21.3111V6.70593L21.3041 6.71893C21.256 6.82434 21.2056 6.9287 21.153 7.03193C20.4696 8.35629 19.5684 9.55635 18.487 10.5819L19.5131 11.6759C20.8007 10.4546 21.8582 9.01161 22.635 7.41593L22.674 7.33093L22.684 7.30693L22.688 7.29993V7.29693L22.689 7.29593L22 6.99993ZM18.487 10.5819C17.627 11.3879 16.5741 12.1339 15.3131 12.6309L15.8621 14.0269C17.3351 13.4469 18.5471 12.5829 19.5131 11.6759L18.487 10.5819ZM18.47 11.6589L19.97 13.1599L21.0301 12.0989L19.5301 10.5989L18.47 11.6589ZM11.2501 13.9999V16.4999H12.7501V13.9999H11.2501ZM14.9591 13.7379L16.3711 15.9089L17.629 15.0909L16.2161 12.9199L14.9591 13.7379ZM4.46905 10.5979L2.96905 12.0979L4.03005 13.1589L5.53005 11.6599L4.46905 10.5979Z" fill="currentColor"/>
</svg>
