<svg width="24" height="24" viewBox="0 0 24 24" fill="none" xmlns="http://www.w3.org/2000/svg">
<path fill-rule="evenodd" clip-rule="evenodd" d="M9.206 3.182C7.45513 3.73723 5.90909 4.80095 4.76473 6.23771C3.62038 7.67448 2.92948 9.41929 2.78 11.25H7.26C7.293 10.154 7.395 9.074 7.565 8.05C7.772 6.796 8.08 5.64 8.475 4.65C8.67496 4.1401 8.91958 3.64885 9.206 3.182ZM12 1.25C10.5883 1.25 9.1904 1.52806 7.88615 2.0683C6.5819 2.60853 5.39683 3.40037 4.3986 4.3986C3.40037 5.39683 2.60853 6.5819 2.06829 7.88615C1.52806 9.1904 1.25 10.5883 1.25 12C1.25 13.4117 1.52806 14.8096 2.06829 16.1138C2.60853 17.4181 3.40037 18.6032 4.3986 19.6014C5.39683 20.5996 6.5819 21.3915 7.88615 21.9317C9.1904 22.4719 10.5883 22.75 12 22.75C14.8511 22.75 17.5854 21.6174 19.6014 19.6014C21.6174 17.5854 22.75 14.8511 22.75 12C22.75 9.14892 21.6174 6.41462 19.6014 4.3986C17.5854 2.38259 14.8511 1.25 12 1.25ZM12 2.75C11.739 2.75 11.401 2.876 11.009 3.282C10.613 3.692 10.218 4.333 9.868 5.207C9.521 6.076 9.238 7.124 9.044 8.296C8.889 9.236 8.794 10.233 8.762 11.25H15.238C15.2092 10.2602 15.115 9.27337 14.956 8.296C14.762 7.124 14.479 6.076 14.132 5.207C13.782 4.333 13.387 3.692 12.992 3.282C12.599 2.876 12.262 2.75 12 2.75ZM16.74 11.25C16.7101 10.1777 16.6082 9.10864 16.435 8.05C16.228 6.796 15.92 5.64 15.525 4.65C15.3248 4.14004 15.0798 3.6488 14.793 3.182C16.207 3.62916 17.4925 4.41016 18.541 5.459C20.0922 7.01064 21.0414 9.06315 21.219 11.25H16.74ZM15.238 12.75H8.762C8.793 13.767 8.889 14.764 9.044 15.704C9.238 16.876 9.521 17.924 9.868 18.793C10.218 19.667 10.613 20.308 11.008 20.718C11.401 21.124 11.738 21.25 12 21.25C12.261 21.25 12.599 21.124 12.991 20.718C13.387 20.308 13.782 19.667 14.132 18.793C14.479 17.924 14.762 16.876 14.956 15.704C15.111 14.764 15.206 13.767 15.238 12.75ZM14.794 20.818C15.064 20.384 15.309 19.889 15.524 19.35C15.92 18.36 16.228 17.204 16.435 15.95C16.6078 14.8913 16.7094 13.8223 16.739 12.75H21.219C21.07 14.5809 20.3793 16.3259 19.2349 17.7628C18.0905 19.1997 16.5452 20.2632 14.794 20.818ZM9.205 20.818C8.91892 20.3511 8.67464 19.8599 8.475 19.35C8.079 18.36 7.771 17.204 7.564 15.95C7.39115 14.8913 7.28959 13.8223 7.26 12.75H2.78C2.92888 14.5808 3.61944 16.3257 4.76368 17.7626C5.90792 19.1994 7.45404 20.2631 9.205 20.818Z" fill="currentColor"/>
</svg>
