<svg width="195" height="195" viewBox="0 0 195 195" fill="none" xmlns="http://www.w3.org/2000/svg">
<circle cx="2.5" cy="2.5" r="2.5" fill="currentColor"/>
<circle cx="2.5" cy="102.5" r="2.5" fill="currentColor"/>
<circle cx="102.5" cy="102.5" r="2.5" fill="currentColor"/>
<circle cx="2.5" cy="12.5" r="2.5" fill="currentColor"/>
<circle cx="2.5" cy="112.5" r="2.5" fill="currentColor"/>
<circle cx="102.5" cy="112.5" r="2.5" fill="currentColor"/>
<circle cx="2.5" cy="22.5" r="2.5" fill="currentColor"/>
<circle cx="2.5" cy="122.5" r="2.5" fill="currentColor"/>
<circle cx="2.5" cy="32.5" r="2.5" fill="currentColor"/>
<circle cx="2.5" cy="132.5" r="2.5" fill="currentColor"/>
<circle cx="2.5" cy="42.5" r="2.5" fill="currentColor"/>
<circle cx="2.5" cy="142.5" r="2.5" fill="currentColor"/>
<circle cx="2.5" cy="52.5" r="2.5" fill="currentColor"/>
<circle cx="2.5" cy="152.5" r="2.5" fill="currentColor"/>
<circle cx="2.5" cy="62.5" r="2.5" fill="currentColor"/>
<circle cx="2.5" cy="162.5" r="2.5" fill="currentColor"/>
<circle cx="102.5" cy="162.5" r="2.5" fill="currentColor"/>
<circle cx="2.5" cy="72.5" r="2.5" fill="currentColor"/>
<circle cx="2.5" cy="172.5" r="2.5" fill="currentColor"/>
<circle cx="102.5" cy="172.5" r="2.5" fill="currentColor"/>
<circle cx="2.5" cy="82.5" r="2.5" fill="currentColor"/>
<circle cx="2.5" cy="182.5" r="2.5" fill="currentColor"/>
<circle cx="102.5" cy="182.5" r="2.5" fill="currentColor"/>
<circle cx="2.5" cy="92.5" r="2.5" fill="currentColor"/>
<circle cx="2.5" cy="192.5" r="2.5" fill="currentColor"/>
<circle cx="102.5" cy="192.5" r="2.5" fill="currentColor"/>
<circle cx="12.5" cy="2.5" r="2.5" fill="currentColor"/>
<circle cx="12.5" cy="102.5" r="2.5" fill="currentColor"/>
<circle cx="112.5" cy="102.5" r="2.5" fill="currentColor"/>
<circle cx="12.5" cy="12.5" r="2.5" fill="currentColor"/>
<circle cx="12.5" cy="112.5" r="2.5" fill="currentColor"/>
<circle cx="112.5" cy="112.5" r="2.5" fill="currentColor"/>
<circle cx="12.5" cy="22.5" r="2.5" fill="currentColor"/>
<circle cx="12.5" cy="122.5" r="2.5" fill="currentColor"/>
<circle cx="12.5" cy="32.5" r="2.5" fill="currentColor"/>
<circle cx="12.5" cy="132.5" r="2.5" fill="currentColor"/>
<circle cx="12.5" cy="42.5" r="2.5" fill="currentColor"/>
<circle cx="12.5" cy="142.5" r="2.5" fill="currentColor"/>
<circle cx="12.5" cy="52.5" r="2.5" fill="currentColor"/>
<circle cx="12.5" cy="152.5" r="2.5" fill="currentColor"/>
<circle cx="12.5" cy="62.5" r="2.5" fill="currentColor"/>
<circle cx="12.5" cy="162.5" r="2.5" fill="currentColor"/>
<circle cx="112.5" cy="162.5" r="2.5" fill="currentColor"/>
<circle cx="12.5" cy="72.5" r="2.5" fill="currentColor"/>
<circle cx="12.5" cy="172.5" r="2.5" fill="currentColor"/>
<circle cx="112.5" cy="172.5" r="2.5" fill="currentColor"/>
<circle cx="12.5" cy="82.5" r="2.5" fill="currentColor"/>
<circle cx="12.5" cy="182.5" r="2.5" fill="currentColor"/>
<circle cx="112.5" cy="182.5" r="2.5" fill="currentColor"/>
<circle cx="12.5" cy="92.5" r="2.5" fill="currentColor"/>
<circle cx="12.5" cy="192.5" r="2.5" fill="currentColor"/>
<circle cx="112.5" cy="192.5" r="2.5" fill="currentColor"/>
<circle cx="22.5" cy="2.5" r="2.5" fill="currentColor"/>
<circle cx="22.5" cy="102.5" r="2.5" fill="currentColor"/>
<circle cx="122.5" cy="102.5" r="2.5" fill="currentColor"/>
<circle cx="22.5" cy="12.5" r="2.5" fill="currentColor"/>
<circle cx="22.5" cy="112.5" r="2.5" fill="currentColor"/>
<circle cx="122.5" cy="112.5" r="2.5" fill="currentColor"/>
<circle cx="22.5" cy="22.5" r="2.5" fill="currentColor"/>
<circle cx="22.5" cy="122.5" r="2.5" fill="currentColor"/>
<circle cx="22.5" cy="32.5" r="2.5" fill="currentColor"/>
<circle cx="22.5" cy="132.5" r="2.5" fill="currentColor"/>
<circle cx="22.5" cy="42.5" r="2.5" fill="currentColor"/>
<circle cx="22.5" cy="142.5" r="2.5" fill="currentColor"/>
<circle cx="22.5" cy="52.5" r="2.5" fill="currentColor"/>
<circle cx="22.5" cy="152.5" r="2.5" fill="currentColor"/>
<circle cx="22.5" cy="62.5" r="2.5" fill="currentColor"/>
<circle cx="22.5" cy="162.5" r="2.5" fill="currentColor"/>
<circle cx="122.5" cy="162.5" r="2.5" fill="currentColor"/>
<circle cx="22.5" cy="72.5" r="2.5" fill="currentColor"/>
<circle cx="22.5" cy="172.5" r="2.5" fill="currentColor"/>
<circle cx="122.5" cy="172.5" r="2.5" fill="currentColor"/>
<circle cx="22.5" cy="82.5" r="2.5" fill="currentColor"/>
<circle cx="22.5" cy="182.5" r="2.5" fill="currentColor"/>
<circle cx="122.5" cy="182.5" r="2.5" fill="currentColor"/>
<circle cx="22.5" cy="92.5" r="2.5" fill="currentColor"/>
<circle cx="22.5" cy="192.5" r="2.5" fill="currentColor"/>
<circle cx="122.5" cy="192.5" r="2.5" fill="currentColor"/>
<circle cx="32.5" cy="2.5" r="2.5" fill="currentColor"/>
<circle cx="32.5" cy="102.5" r="2.5" fill="currentColor"/>
<circle cx="132.5" cy="102.5" r="2.5" fill="currentColor"/>
<circle cx="32.5" cy="12.5" r="2.5" fill="currentColor"/>
<circle cx="32.5" cy="112.5" r="2.5" fill="currentColor"/>
<circle cx="132.5" cy="112.5" r="2.5" fill="currentColor"/>
<circle cx="32.5" cy="22.5" r="2.5" fill="currentColor"/>
<circle cx="32.5" cy="122.5" r="2.5" fill="currentColor"/>
<circle cx="32.5" cy="32.5" r="2.5" fill="currentColor"/>
<circle cx="32.5" cy="132.5" r="2.5" fill="currentColor"/>
<circle cx="32.5" cy="42.5" r="2.5" fill="currentColor"/>
<circle cx="32.5" cy="142.5" r="2.5" fill="currentColor"/>
<circle cx="32.5" cy="52.5" r="2.5" fill="currentColor"/>
<circle cx="32.5" cy="152.5" r="2.5" fill="currentColor"/>
<circle cx="32.5" cy="62.5" r="2.5" fill="currentColor"/>
<circle cx="32.5" cy="162.5" r="2.5" fill="currentColor"/>
<circle cx="132.5" cy="162.5" r="2.5" fill="currentColor"/>
<circle cx="32.5" cy="72.5" r="2.5" fill="currentColor"/>
<circle cx="32.5" cy="172.5" r="2.5" fill="currentColor"/>
<circle cx="132.5" cy="172.5" r="2.5" fill="currentColor"/>
<circle cx="32.5" cy="82.5" r="2.5" fill="currentColor"/>
<circle cx="32.5" cy="182.5" r="2.5" fill="currentColor"/>
<circle cx="132.5" cy="182.5" r="2.5" fill="currentColor"/>
<circle cx="32.5" cy="92.5" r="2.5" fill="currentColor"/>
<circle cx="32.5" cy="192.5" r="2.5" fill="currentColor"/>
<circle cx="132.5" cy="192.5" r="2.5" fill="currentColor"/>
<circle cx="42.5" cy="2.5" r="2.5" fill="currentColor"/>
<circle cx="42.5" cy="102.5" r="2.5" fill="currentColor"/>
<circle cx="142.5" cy="102.5" r="2.5" fill="currentColor"/>
<circle cx="42.5" cy="12.5" r="2.5" fill="currentColor"/>
<circle cx="42.5" cy="112.5" r="2.5" fill="currentColor"/>
<circle cx="142.5" cy="112.5" r="2.5" fill="currentColor"/>
<circle cx="42.5" cy="22.5" r="2.5" fill="currentColor"/>
<circle cx="42.5" cy="122.5" r="2.5" fill="currentColor"/>
<circle cx="42.5" cy="32.5" r="2.5" fill="currentColor"/>
<circle cx="42.5" cy="132.5" r="2.5" fill="currentColor"/>
<circle cx="42.5" cy="42.5" r="2.5" fill="currentColor"/>
<circle cx="42.5" cy="142.5" r="2.5" fill="currentColor"/>
<circle cx="42.5" cy="52.5" r="2.5" fill="currentColor"/>
<circle cx="42.5" cy="152.5" r="2.5" fill="currentColor"/>
<circle cx="42.5" cy="62.5" r="2.5" fill="currentColor"/>
<circle cx="42.5" cy="162.5" r="2.5" fill="currentColor"/>
<circle cx="142.5" cy="162.5" r="2.5" fill="currentColor"/>
<circle cx="42.5" cy="72.5" r="2.5" fill="currentColor"/>
<circle cx="42.5" cy="172.5" r="2.5" fill="currentColor"/>
<circle cx="142.5" cy="172.5" r="2.5" fill="currentColor"/>
<circle cx="42.5" cy="82.5" r="2.5" fill="currentColor"/>
<circle cx="42.5" cy="182.5" r="2.5" fill="currentColor"/>
<circle cx="142.5" cy="182.5" r="2.5" fill="currentColor"/>
<circle cx="42.5" cy="92.5" r="2.5" fill="currentColor"/>
<circle cx="42.5" cy="192.5" r="2.5" fill="currentColor"/>
<circle cx="142.5" cy="192.5" r="2.5" fill="currentColor"/>
<circle cx="52.5" cy="2.5" r="2.5" fill="currentColor"/>
<circle cx="52.5" cy="102.5" r="2.5" fill="currentColor"/>
<circle cx="152.5" cy="102.5" r="2.5" fill="currentColor"/>
<circle cx="52.5" cy="12.5" r="2.5" fill="currentColor"/>
<circle cx="52.5" cy="112.5" r="2.5" fill="currentColor"/>
<circle cx="152.5" cy="112.5" r="2.5" fill="currentColor"/>
<circle cx="52.5" cy="22.5" r="2.5" fill="currentColor"/>
<circle cx="52.5" cy="32.5" r="2.5" fill="currentColor"/>
<circle cx="52.5" cy="162.5" r="2.5" fill="currentColor"/>
<circle cx="152.5" cy="162.5" r="2.5" fill="currentColor"/>
<circle cx="52.5" cy="172.5" r="2.5" fill="currentColor"/>
<circle cx="152.5" cy="172.5" r="2.5" fill="currentColor"/>
<circle cx="52.5" cy="82.5" r="2.5" fill="currentColor"/>
<circle cx="52.5" cy="182.5" r="2.5" fill="currentColor"/>
<circle cx="152.5" cy="182.5" r="2.5" fill="currentColor"/>
<circle cx="52.5" cy="92.5" r="2.5" fill="currentColor"/>
<circle cx="52.5" cy="192.5" r="2.5" fill="currentColor"/>
<circle cx="152.5" cy="192.5" r="2.5" fill="currentColor"/>
<circle cx="62.5" cy="2.5" r="2.5" fill="currentColor"/>
<circle cx="62.5" cy="102.5" r="2.5" fill="currentColor"/>
<circle cx="162.5" cy="102.5" r="2.5" fill="currentColor"/>
<circle cx="62.5" cy="12.5" r="2.5" fill="currentColor"/>
<circle cx="62.5" cy="112.5" r="2.5" fill="currentColor"/>
<circle cx="162.5" cy="112.5" r="2.5" fill="currentColor"/>
<circle cx="62.5" cy="22.5" r="2.5" fill="currentColor"/>
<circle cx="62.5" cy="32.5" r="2.5" fill="currentColor"/>
<circle cx="62.5" cy="162.5" r="2.5" fill="currentColor"/>
<circle cx="162.5" cy="162.5" r="2.5" fill="currentColor"/>
<circle cx="62.5" cy="172.5" r="2.5" fill="currentColor"/>
<circle cx="162.5" cy="172.5" r="2.5" fill="currentColor"/>
<circle cx="62.5" cy="82.5" r="2.5" fill="currentColor"/>
<circle cx="62.5" cy="182.5" r="2.5" fill="currentColor"/>
<circle cx="162.5" cy="182.5" r="2.5" fill="currentColor"/>
<circle cx="62.5" cy="92.5" r="2.5" fill="currentColor"/>
<circle cx="62.5" cy="192.5" r="2.5" fill="currentColor"/>
<circle cx="162.5" cy="192.5" r="2.5" fill="currentColor"/>
<circle cx="72.5" cy="2.5" r="2.5" fill="currentColor"/>
<circle cx="72.5" cy="102.5" r="2.5" fill="currentColor"/>
<circle cx="172.5" cy="102.5" r="2.5" fill="currentColor"/>
<circle cx="72.5" cy="12.5" r="2.5" fill="currentColor"/>
<circle cx="72.5" cy="112.5" r="2.5" fill="currentColor"/>
<circle cx="172.5" cy="112.5" r="2.5" fill="currentColor"/>
<circle cx="72.5" cy="22.5" r="2.5" fill="currentColor"/>
<circle cx="72.5" cy="32.5" r="2.5" fill="currentColor"/>
<circle cx="72.5" cy="162.5" r="2.5" fill="currentColor"/>
<circle cx="172.5" cy="162.5" r="2.5" fill="currentColor"/>
<circle cx="72.5" cy="172.5" r="2.5" fill="currentColor"/>
<circle cx="172.5" cy="172.5" r="2.5" fill="currentColor"/>
<circle cx="72.5" cy="82.5" r="2.5" fill="currentColor"/>
<circle cx="72.5" cy="182.5" r="2.5" fill="currentColor"/>
<circle cx="172.5" cy="182.5" r="2.5" fill="currentColor"/>
<circle cx="72.5" cy="92.5" r="2.5" fill="currentColor"/>
<circle cx="72.5" cy="192.5" r="2.5" fill="currentColor"/>
<circle cx="172.5" cy="192.5" r="2.5" fill="currentColor"/>
<circle cx="82.5" cy="2.5" r="2.5" fill="currentColor"/>
<circle cx="82.5" cy="102.5" r="2.5" fill="currentColor"/>
<circle cx="182.5" cy="102.5" r="2.5" fill="currentColor"/>
<circle cx="82.5" cy="12.5" r="2.5" fill="currentColor"/>
<circle cx="82.5" cy="112.5" r="2.5" fill="currentColor"/>
<circle cx="182.5" cy="112.5" r="2.5" fill="currentColor"/>
<circle cx="82.5" cy="22.5" r="2.5" fill="currentColor"/>
<circle cx="82.5" cy="32.5" r="2.5" fill="currentColor"/>
<circle cx="82.5" cy="162.5" r="2.5" fill="currentColor"/>
<circle cx="182.5" cy="162.5" r="2.5" fill="currentColor"/>
<circle cx="82.5" cy="172.5" r="2.5" fill="currentColor"/>
<circle cx="182.5" cy="172.5" r="2.5" fill="currentColor"/>
<circle cx="82.5" cy="82.5" r="2.5" fill="currentColor"/>
<circle cx="82.5" cy="182.5" r="2.5" fill="currentColor"/>
<circle cx="182.5" cy="182.5" r="2.5" fill="currentColor"/>
<circle cx="82.5" cy="92.5" r="2.5" fill="currentColor"/>
<circle cx="82.5" cy="192.5" r="2.5" fill="currentColor"/>
<circle cx="182.5" cy="192.5" r="2.5" fill="currentColor"/>
<circle cx="92.5" cy="2.5" r="2.5" fill="currentColor"/>
<circle cx="92.5" cy="102.5" r="2.5" fill="currentColor"/>
<circle cx="192.5" cy="102.5" r="2.5" fill="currentColor"/>
<circle cx="92.5" cy="12.5" r="2.5" fill="currentColor"/>
<circle cx="92.5" cy="112.5" r="2.5" fill="currentColor"/>
<circle cx="192.5" cy="112.5" r="2.5" fill="currentColor"/>
<circle cx="92.5" cy="22.5" r="2.5" fill="currentColor"/>
<circle cx="92.5" cy="32.5" r="2.5" fill="currentColor"/>
<circle cx="92.5" cy="162.5" r="2.5" fill="currentColor"/>
<circle cx="192.5" cy="162.5" r="2.5" fill="currentColor"/>
<circle cx="92.5" cy="172.5" r="2.5" fill="currentColor"/>
<circle cx="192.5" cy="172.5" r="2.5" fill="currentColor"/>
<circle cx="92.5" cy="82.5" r="2.5" fill="currentColor"/>
<circle cx="92.5" cy="182.5" r="2.5" fill="currentColor"/>
<circle cx="192.5" cy="182.5" r="2.5" fill="currentColor"/>
<circle cx="92.5" cy="92.5" r="2.5" fill="currentColor"/>
<circle cx="92.5" cy="192.5" r="2.5" fill="currentColor"/>
<circle cx="192.5" cy="192.5" r="2.5" fill="currentColor"/>
<rect x="100" width="5" height="5" rx="2.5" fill="currentColor"/>
<rect x="100" y="10" width="5" height="5" rx="2.5" fill="currentColor"/>
<rect x="100" y="20" width="5" height="5" rx="2.5" fill="currentColor"/>
<rect x="100" y="30" width="5" height="5" rx="2.5" fill="currentColor"/>
<rect x="100" y="80" width="5" height="5" rx="2.5" fill="currentColor"/>
<rect x="100" y="90" width="5" height="5" rx="2.5" fill="currentColor"/>
<rect x="110" width="5" height="5" rx="2.5" fill="currentColor"/>
<rect x="110" y="10" width="5" height="5" rx="2.5" fill="currentColor"/>
<rect x="110" y="20" width="5" height="5" rx="2.5" fill="currentColor"/>
<rect x="110" y="30" width="5" height="5" rx="2.5" fill="currentColor"/>
<rect x="110" y="80" width="5" height="5" rx="2.5" fill="currentColor"/>
<rect x="110" y="90" width="5" height="5" rx="2.5" fill="currentColor"/>
<rect x="120" width="5" height="5" rx="2.5" fill="currentColor"/>
<rect x="120" y="10" width="5" height="5" rx="2.5" fill="currentColor"/>
<rect x="120" y="20" width="5" height="5" rx="2.5" fill="currentColor"/>
<rect x="120" y="30" width="5" height="5" rx="2.5" fill="currentColor"/>
<rect x="120" y="80" width="5" height="5" rx="2.5" fill="currentColor"/>
<rect x="120" y="90" width="5" height="5" rx="2.5" fill="currentColor"/>
<rect x="130" width="5" height="5" rx="2.5" fill="currentColor"/>
<rect x="130" y="10" width="5" height="5" rx="2.5" fill="currentColor"/>
<rect x="130" y="20" width="5" height="5" rx="2.5" fill="currentColor"/>
<rect x="130" y="30" width="5" height="5" rx="2.5" fill="currentColor"/>
<rect x="130" y="80" width="5" height="5" rx="2.5" fill="currentColor"/>
<rect x="130" y="90" width="5" height="5" rx="2.5" fill="currentColor"/>
<rect x="140" width="5" height="5" rx="2.5" fill="currentColor"/>
<rect x="140" y="10" width="5" height="5" rx="2.5" fill="currentColor"/>
<rect x="140" y="20" width="5" height="5" rx="2.5" fill="currentColor"/>
<rect x="140" y="30" width="5" height="5" rx="2.5" fill="currentColor"/>
<rect x="140" y="80" width="5" height="5" rx="2.5" fill="currentColor"/>
<rect x="140" y="90" width="5" height="5" rx="2.5" fill="currentColor"/>
<rect x="150" width="5" height="5" rx="2.5" fill="currentColor"/>
<rect x="150" y="10" width="5" height="5" rx="2.5" fill="currentColor"/>
<rect x="150" y="20" width="5" height="5" rx="2.5" fill="currentColor"/>
<rect x="150" y="30" width="5" height="5" rx="2.5" fill="currentColor"/>
<rect x="150" y="80" width="5" height="5" rx="2.5" fill="currentColor"/>
<rect x="150" y="90" width="5" height="5" rx="2.5" fill="currentColor"/>
<rect x="160" width="5" height="5" rx="2.5" fill="currentColor"/>
<rect x="160" y="10" width="5" height="5" rx="2.5" fill="currentColor"/>
<rect x="160" y="20" width="5" height="5" rx="2.5" fill="currentColor"/>
<rect x="160" y="30" width="5" height="5" rx="2.5" fill="currentColor"/>
<rect x="160" y="80" width="5" height="5" rx="2.5" fill="currentColor"/>
<rect x="160" y="90" width="5" height="5" rx="2.5" fill="currentColor"/>
<rect x="170" width="5" height="5" rx="2.5" fill="currentColor"/>
<rect x="170" y="10" width="5" height="5" rx="2.5" fill="currentColor"/>
<rect x="170" y="20" width="5" height="5" rx="2.5" fill="currentColor"/>
<rect x="170" y="30" width="5" height="5" rx="2.5" fill="currentColor"/>
<rect x="170" y="80" width="5" height="5" rx="2.5" fill="currentColor"/>
<rect x="170" y="90" width="5" height="5" rx="2.5" fill="currentColor"/>
<rect x="180" width="5" height="5" rx="2.5" fill="currentColor"/>
<rect x="180" y="10" width="5" height="5" rx="2.5" fill="currentColor"/>
<rect x="180" y="20" width="5" height="5" rx="2.5" fill="currentColor"/>
<rect x="180" y="30" width="5" height="5" rx="2.5" fill="currentColor"/>
<rect x="180" y="80" width="5" height="5" rx="2.5" fill="currentColor"/>
<rect x="180" y="90" width="5" height="5" rx="2.5" fill="currentColor"/>
<rect x="190" width="5" height="5" rx="2.5" fill="currentColor"/>
<rect x="190" y="10" width="5" height="5" rx="2.5" fill="currentColor"/>
<rect x="190" y="20" width="5" height="5" rx="2.5" fill="currentColor"/>
<rect x="190" y="30" width="5" height="5" rx="2.5" fill="currentColor"/>
<rect x="190" y="80" width="5" height="5" rx="2.5" fill="currentColor"/>
<rect x="190" y="90" width="5" height="5" rx="2.5" fill="currentColor"/>
</svg>
