<svg width="24" height="24" viewBox="0 0 24 24" fill="none" xmlns="http://www.w3.org/2000/svg">
<path d="M2 6C2 4.6 2 3.9 2.272 3.365C2.51173 2.89435 2.89435 2.51173 3.365 2.272C3.9 2 4.6 2 6 2C7.4 2 8.1 2 8.635 2.272C9.10565 2.51173 9.48827 2.89435 9.728 3.365C10 3.9 10 4.6 10 6V18C10 19.4 10 20.1 9.728 20.635C9.4881 21.1053 9.10549 21.4875 8.635 21.727C8.1 22 7.4 22 6 22C4.6 22 3.9 22 3.365 21.727C2.89451 21.4875 2.5119 21.1053 2.272 20.635C2 20.1 2 19.4 2 18V6Z" stroke="currentColor" stroke-width="1.5"/>
<path d="M7 19H5" stroke="currentColor" stroke-width="1.5" stroke-linecap="round"/>
<path d="M13.314 4.92906L11.172 7.07106C10.594 7.64906 10.305 7.93806 10.152 8.30606C10 8.67306 10 9.08206 10 9.90006V19.5561L18.97 10.5861C19.96 9.59606 20.456 9.10106 20.641 8.53006C20.8041 8.02798 20.8041 7.48715 20.641 6.98506C20.456 6.41506 19.961 5.91906 18.971 4.92906C17.981 3.93906 17.485 3.44406 16.915 3.25906C16.4129 3.09594 15.8721 3.09594 15.37 3.25906C14.799 3.44406 14.304 3.93906 13.314 4.92906Z" stroke="currentColor" stroke-width="1.5"/>
<path d="M6 22H18C19.4 22 20.1 22 20.635 21.727C21.1051 21.4874 21.4874 21.1051 21.727 20.635C22 20.1 22 19.4 22 18C22 16.6 22 15.9 21.727 15.365C21.4874 14.8949 21.1051 14.5126 20.635 14.273C20.1 14 19.4 14 18 14H15.5" stroke="currentColor" stroke-width="1.5"/>
</svg>
