<svg width="24" height="24" viewBox="0 0 24 24" fill="none" xmlns="http://www.w3.org/2000/svg">
<path d="M12.7501 10C12.7501 9.80109 12.671 9.61032 12.5304 9.46967C12.3897 9.32902 12.199 9.25 12.0001 9.25C11.8011 9.25 11.6104 9.32902 11.4697 9.46967C11.3291 9.61032 11.2501 9.80109 11.2501 10V10.701L10.6431 10.351C10.4714 10.2596 10.2711 10.2384 10.0842 10.2919C9.89724 10.3454 9.73841 10.4694 9.64114 10.6378C9.54387 10.8061 9.51578 11.0056 9.56277 11.1943C9.60977 11.3829 9.72818 11.546 9.89305 11.649L10.5001 11.999L9.89305 12.35C9.72066 12.4495 9.59484 12.6133 9.54327 12.8055C9.49169 12.9978 9.51859 13.2026 9.61805 13.375C9.71751 13.5474 9.88137 13.6732 10.0736 13.7248C10.2658 13.7764 10.4707 13.7495 10.6431 13.65L11.2501 13.299V14C11.2501 14.1989 11.3291 14.3897 11.4697 14.5303C11.6104 14.671 11.8011 14.75 12.0001 14.75C12.199 14.75 12.3897 14.671 12.5304 14.5303C12.671 14.3897 12.7501 14.1989 12.7501 14V13.3L13.3571 13.65C13.5294 13.7495 13.7343 13.7764 13.9265 13.7248C14.1187 13.6732 14.2826 13.5474 14.3821 13.375C14.4815 13.2026 14.5084 12.9978 14.4568 12.8055C14.4053 12.6133 14.2794 12.4495 14.1071 12.35L13.5001 12L14.1071 11.65C14.2794 11.5505 14.4053 11.3867 14.4568 11.1945C14.5084 11.0022 14.4815 10.7974 14.3821 10.625C14.2826 10.4526 14.1187 10.3268 13.9265 10.2752C13.7343 10.2236 13.5294 10.2505 13.3571 10.35L12.7501 10.7V10ZM6.73305 9.25C6.93196 9.25 7.12273 9.32902 7.26338 9.46967C7.40403 9.61032 7.48305 9.80109 7.48305 10V10.7L8.08905 10.35C8.26144 10.2505 8.46628 10.2236 8.6585 10.2752C8.85073 10.3268 9.01459 10.4526 9.11405 10.625C9.21351 10.7974 9.24041 11.0022 9.18884 11.1945C9.13726 11.3867 9.01144 11.5505 8.83905 11.65L8.23205 12L8.83905 12.35C8.92441 12.3992 8.99923 12.4648 9.05925 12.543C9.11927 12.6211 9.1633 12.7104 9.18884 12.8055C9.21437 12.9007 9.22091 13 9.20808 13.0977C9.19525 13.1954 9.1633 13.2896 9.11405 13.375C9.06481 13.4604 8.99923 13.5352 8.92107 13.5952C8.8429 13.6552 8.75368 13.6992 8.6585 13.7248C8.56332 13.7503 8.46405 13.7569 8.36634 13.744C8.26863 13.7312 8.17441 13.6992 8.08905 13.65L7.48305 13.3V14C7.48305 14.1989 7.40403 14.3897 7.26338 14.5303C7.12273 14.671 6.93196 14.75 6.73305 14.75C6.53414 14.75 6.34337 14.671 6.20272 14.5303C6.06207 14.3897 5.98305 14.1989 5.98305 14V13.299L5.37505 13.649C5.20345 13.7404 5.00307 13.7616 4.81615 13.7081C4.62924 13.6546 4.47041 13.5306 4.37314 13.3622C4.27587 13.1939 4.24778 12.9944 4.29477 12.8057C4.34177 12.6171 4.46018 12.454 4.62505 12.351L5.23205 12L4.62505 11.65C4.53969 11.6008 4.46487 11.5352 4.40485 11.457C4.34484 11.3789 4.3008 11.2896 4.27527 11.1945C4.24973 11.0993 4.24319 11 4.25602 10.9023C4.26885 10.8046 4.3008 10.7104 4.35005 10.625C4.3993 10.5396 4.46487 10.4648 4.54303 10.4048C4.6212 10.3448 4.71042 10.3008 4.8056 10.2752C4.90078 10.2497 5.00005 10.2431 5.09776 10.256C5.19547 10.2688 5.28969 10.3008 5.37505 10.35L5.98305 10.701V10C5.98305 9.80109 6.06207 9.61032 6.20272 9.46967C6.34337 9.32902 6.53414 9.25 6.73305 9.25ZM18.0181 10C18.0181 9.80109 17.939 9.61032 17.7984 9.46967C17.6577 9.32902 17.467 9.25 17.2681 9.25C17.0691 9.25 16.8784 9.32902 16.7377 9.46967C16.5971 9.61032 16.5181 9.80109 16.5181 10V10.701L15.9111 10.351C15.7394 10.2596 15.5391 10.2384 15.3522 10.2919C15.1652 10.3454 15.0064 10.4694 14.9091 10.6378C14.8119 10.8061 14.7838 11.0056 14.8308 11.1943C14.8778 11.3829 14.9962 11.546 15.1611 11.649L15.7681 11.999L15.1601 12.35C14.9877 12.4495 14.8618 12.6133 14.8103 12.8055C14.7587 12.9978 14.7856 13.2026 14.8851 13.375C14.9845 13.5474 15.1484 13.6732 15.3406 13.7248C15.5328 13.7764 15.7377 13.7495 15.9101 13.65L16.5181 13.299V14C16.5181 14.1989 16.5971 14.3897 16.7377 14.5303C16.8784 14.671 17.0691 14.75 17.2681 14.75C17.467 14.75 17.6577 14.671 17.7984 14.5303C17.939 14.3897 18.0181 14.1989 18.0181 14V13.3L18.6251 13.65C18.7974 13.7495 19.0023 13.7764 19.1945 13.7248C19.3867 13.6732 19.5506 13.5474 19.6501 13.375C19.7495 13.2026 19.7764 12.9978 19.7248 12.8055C19.6733 12.6133 19.5474 12.4495 19.3751 12.35L18.7681 12L19.3751 11.65C19.5474 11.5505 19.6733 11.3867 19.7248 11.1945C19.7764 11.0022 19.7495 10.7974 19.6501 10.625C19.5506 10.4526 19.3867 10.3268 19.1945 10.2752C19.0023 10.2236 18.7974 10.2505 18.6251 10.35L18.0181 10.7V10Z" fill="currentColor"/>
<path fill-rule="evenodd" clip-rule="evenodd" d="M9.944 3.25C8.106 3.25 6.65 3.25 5.511 3.403C4.339 3.561 3.39 3.893 2.641 4.641C1.893 5.39 1.561 6.339 1.403 7.511C1.25 8.651 1.25 10.106 1.25 11.944V12.056C1.25 13.894 1.25 15.35 1.403 16.489C1.561 17.661 1.893 18.61 2.641 19.359C3.39 20.107 4.339 20.439 5.511 20.597C6.651 20.75 8.106 20.75 9.944 20.75H14.056C15.894 20.75 17.35 20.75 18.489 20.597C19.661 20.439 20.61 20.107 21.359 19.359C22.107 18.61 22.439 17.661 22.597 16.489C22.75 15.349 22.75 13.894 22.75 12.056V11.944C22.75 10.106 22.75 8.65 22.597 7.511C22.439 6.339 22.107 5.39 21.359 4.641C20.61 3.893 19.661 3.561 18.489 3.403C17.349 3.25 15.894 3.25 14.056 3.25H9.944ZM3.702 5.702C4.125 5.279 4.705 5.025 5.711 4.89C6.739 4.752 8.093 4.75 10 4.75H14C15.907 4.75 17.262 4.752 18.29 4.89C19.295 5.025 19.875 5.279 20.298 5.702C20.721 6.125 20.975 6.705 21.11 7.711C21.248 8.739 21.25 10.093 21.25 12C21.25 13.907 21.248 15.262 21.11 16.29C20.975 17.295 20.721 17.875 20.298 18.298C19.875 18.721 19.295 18.975 18.289 19.11C17.262 19.248 15.907 19.25 14 19.25H10C8.093 19.25 6.739 19.248 5.71 19.11C4.705 18.975 4.125 18.721 3.702 18.298C3.279 17.875 3.025 17.295 2.89 16.289C2.752 15.261 2.75 13.907 2.75 12C2.75 10.093 2.752 8.739 2.89 7.71C3.025 6.705 3.279 6.125 3.702 5.702Z" fill="currentColor"/>
</svg>
